<svg width="1211" height="138" viewBox="0 0 1211 138" fill="none" xmlns="http://www.w3.org/2000/svg">
<path d="M24.2559 87.9631C24.2559 91.0439 24.575 93.2748 25.2133 94.6559C25.8516 96.037 27.0219 96.9931 28.724 97.5243C30.4262 97.9492 33.1922 98.1617 37.0221 98.1617H54.4162C60.4801 98.1617 65.3207 96.3025 68.9378 92.5843C72.5549 88.8661 74.9485 83.7136 76.1188 77.127C76.1188 76.8083 76.3847 76.7021 76.9167 76.8083C77.555 76.8083 77.8741 76.9677 77.8741 77.2864C76.9167 86.1039 76.4379 93.3811 76.4379 99.1178C76.4379 99.9677 76.2784 100.605 75.9592 101.03C75.6401 101.349 75.0017 101.508 74.0443 101.508H0.319156C0.106385 101.508 0 101.189 0 100.552C0 99.9146 0.106385 99.5958 0.319156 99.5958C4.3618 99.5958 7.28742 99.3303 9.09597 98.7991C11.0109 98.2679 12.2875 97.2587 12.9258 95.7714C13.5641 94.1778 13.8833 91.7875 13.8833 88.6005V14.8199C13.8833 11.6328 13.5641 9.29562 12.9258 7.80832C12.2875 6.32102 11.0109 5.31178 9.09597 4.78059C7.28742 4.14319 4.3618 3.82448 0.319156 3.82448C0.106385 3.82448 0 3.50577 0 2.86836C0 2.23095 0.106385 1.91224 0.319156 1.91224L8.1385 2.0716C12.6067 2.28406 16.2238 2.3903 18.9898 2.3903C21.9686 2.3903 25.6921 2.28406 30.1602 2.0716L37.82 1.91224C38.1391 1.91224 38.2987 2.23095 38.2987 2.86836C38.2987 3.50577 38.1391 3.82448 37.82 3.82448C33.8837 3.82448 30.9581 4.14319 29.0432 4.78059C27.1283 5.31178 25.8516 6.37414 25.2133 7.96767C24.575 9.45497 24.2559 11.7922 24.2559 14.9792V87.9631ZM116.205 45.4157H149.078L150.195 48.7621H113.812L116.205 45.4157ZM191.366 99.5958C191.792 99.5958 192.005 99.9146 192.005 100.552C192.005 101.189 191.792 101.508 191.366 101.508C189.345 101.508 186.207 101.402 181.951 101.189C177.696 100.977 174.611 100.871 172.696 100.871C170.355 100.871 167.377 100.977 163.759 101.189C160.355 101.402 157.749 101.508 155.94 101.508C155.515 101.508 155.302 101.189 155.302 100.552C155.302 99.9146 155.515 99.5958 155.94 99.5958C159.983 99.5958 162.855 99.224 164.557 98.4804C166.366 97.7367 167.27 96.4088 167.27 94.4965C167.27 92.903 166.632 90.6721 165.355 87.8037L129.929 13.067L133.918 8.12702L102.96 81.2702C101.471 84.8822 100.726 87.8568 100.726 90.194C100.726 96.4619 105.939 99.5958 116.365 99.5958C116.897 99.5958 117.163 99.9146 117.163 100.552C117.163 101.189 116.897 101.508 116.365 101.508C114.45 101.508 111.684 101.402 108.067 101.189C104.024 100.977 100.513 100.871 97.5347 100.871C94.7687 100.871 91.5771 100.977 87.96 101.189C84.7684 101.402 82.1088 101.508 79.9811 101.508C79.4492 101.508 79.1832 101.189 79.1832 100.552C79.1832 99.9146 79.4492 99.5958 79.9811 99.5958C82.9599 99.5958 85.4599 99.0647 87.4813 98.0023C89.609 96.8337 91.5771 94.8684 93.3856 92.1062C95.3006 89.2379 97.3751 85.1478 99.6092 79.836L133.28 0.478064C133.493 0.159352 133.865 0 134.397 0C134.929 0 135.248 0.159352 135.355 0.478064L173.015 79.6767C176.632 87.5381 179.717 92.8499 182.271 95.612C184.824 98.2679 187.856 99.5958 191.366 99.5958ZM286.159 1.91224C286.479 1.91224 286.638 2.23095 286.638 2.86836C286.638 3.50577 286.479 3.82448 286.159 3.82448C282.542 3.82448 279.404 4.7806 276.744 6.69284C274.085 8.60508 271.851 11.8453 270.042 16.4134L236.052 101.349C235.946 101.774 235.36 101.986 234.297 101.986C233.446 101.986 232.86 101.774 232.541 101.349L192.806 15.1386C190.998 10.9954 189.083 8.07391 187.062 6.37414C185.04 4.67436 182.434 3.82448 179.242 3.82448C178.923 3.82448 178.764 3.50577 178.764 2.86836C178.764 2.23095 178.923 1.91224 179.242 1.91224L185.306 2.0716C188.285 2.28406 190.679 2.3903 192.487 2.3903C196.636 2.3903 201.158 2.28406 206.051 2.0716L212.754 1.91224C213.073 1.91224 213.232 2.23095 213.232 2.86836C213.232 3.50577 213.073 3.82448 212.754 3.82448C206.158 3.82448 202.86 5.63049 202.86 9.2425C202.86 10.6236 203.339 12.3764 204.296 14.5012L238.765 89.8753L233.818 97.2055L266.372 15.4573C267.223 13.4388 267.648 11.739 267.648 10.358C267.648 8.12702 266.638 6.48037 264.616 5.41802C262.595 4.35566 259.457 3.82448 255.201 3.82448C254.882 3.82448 254.723 3.50577 254.723 2.86836C254.723 2.23095 254.882 1.91224 255.201 1.91224L262.063 2.0716C265.68 2.28406 268.978 2.3903 271.957 2.3903C274.191 2.3903 276.691 2.28406 279.457 2.0716L286.159 1.91224ZM308.509 45.4157H341.382L342.499 48.7621H306.115L308.509 45.4157ZM383.67 99.5958C384.096 99.5958 384.308 99.9146 384.308 100.552C384.308 101.189 384.096 101.508 383.67 101.508C381.649 101.508 378.51 101.402 374.255 101.189C370 100.977 366.914 100.871 364.999 100.871C362.659 100.871 359.68 100.977 356.063 101.189C352.659 101.402 350.052 101.508 348.244 101.508C347.818 101.508 347.605 101.189 347.605 100.552C347.605 99.9146 347.818 99.5958 348.244 99.5958C352.286 99.5958 355.159 99.224 356.861 98.4804C358.669 97.7367 359.574 96.4088 359.574 94.4965C359.574 92.903 358.935 90.6721 357.659 87.8037L322.233 13.067L326.222 8.12702L295.264 81.2702C293.775 84.8822 293.03 87.8568 293.03 90.194C293.03 96.4619 298.243 99.5958 308.668 99.5958C309.2 99.5958 309.466 99.9146 309.466 100.552C309.466 101.189 309.2 101.508 308.668 101.508C306.754 101.508 303.987 101.402 300.37 101.189C296.328 100.977 292.817 100.871 289.838 100.871C287.072 100.871 283.881 100.977 280.264 101.189C277.072 101.402 274.412 101.508 272.285 101.508C271.753 101.508 271.487 101.189 271.487 100.552C271.487 99.9146 271.753 99.5958 272.285 99.5958C275.263 99.5958 277.764 99.0647 279.785 98.0023C281.913 96.8337 283.881 94.8684 285.689 92.1062C287.604 89.2379 289.679 85.1478 291.913 79.836L325.584 0.478064C325.796 0.159352 326.169 0 326.701 0C327.233 0 327.552 0.159352 327.658 0.478064L365.319 79.6767C368.936 87.5381 372.021 92.8499 374.574 95.612C377.127 98.2679 380.159 99.5958 383.67 99.5958ZM446.931 103.42C435.335 103.42 425.229 101.189 416.612 96.7275C407.994 92.2656 401.399 86.2102 396.824 78.5612C392.356 70.9122 390.122 62.3603 390.122 52.9053C390.122 42.6005 392.728 33.4642 397.941 25.4965C403.26 17.5289 410.495 11.3141 419.644 6.8522C428.899 2.3903 439.325 0.159352 450.921 0.159352C456.134 0.159352 461.081 0.690529 465.762 1.75289C470.549 2.70901 474.432 4.09007 477.411 5.89608C478.262 6.42726 478.741 6.90532 478.847 7.33026C479.06 7.64896 479.219 8.39261 479.326 9.5612L481.241 27.4088C481.241 27.7275 480.922 27.94 480.283 28.0462C479.751 28.0462 479.432 27.8868 479.326 27.5681C476.985 19.9192 472.73 14.0231 466.56 9.87991C460.496 5.73672 452.995 3.66513 444.059 3.66513C430.655 3.66513 420.282 7.54273 412.941 15.2979C405.601 23.0531 401.931 33.6767 401.931 47.1686C401.931 57.4734 404.005 66.7159 408.154 74.8961C412.409 82.97 418.261 89.291 425.708 93.8591C433.155 98.4273 441.506 100.711 450.761 100.711C456.187 100.711 460.389 100.233 463.368 99.2771C466.347 98.321 468.528 96.4619 469.911 93.6998C471.294 90.9376 471.985 86.8476 471.985 81.4296C471.985 75.9053 471.613 72.0808 470.868 69.9561C470.23 67.7252 468.687 66.2379 466.24 65.4942C463.9 64.7506 459.804 64.3788 453.953 64.3788C453.315 64.3788 452.995 63.9538 452.995 63.1039C452.995 62.7852 453.049 62.5196 453.155 62.3072C453.368 61.9885 453.581 61.8291 453.793 61.8291C462.091 62.3603 468.794 62.6259 473.9 62.6259C478.9 62.6259 484.113 62.4665 489.539 62.1478C489.752 62.1478 489.911 62.3072 490.018 62.6259C490.23 62.8383 490.337 63.0508 490.337 63.2633C490.337 64.0069 490.071 64.3788 489.539 64.3788C486.986 64.2725 485.177 64.6443 484.113 65.4942C483.049 66.2379 482.358 67.8314 482.039 70.2748C481.719 72.7182 481.56 76.9677 481.56 83.0231C481.56 87.8037 481.719 91.2032 482.039 93.2217C482.464 95.2402 482.677 96.515 482.677 97.0462C482.677 97.6836 482.571 98.1085 482.358 98.321C482.145 98.5335 481.666 98.746 480.922 98.9584C468.049 101.933 456.719 103.42 446.931 103.42ZM503.082 101.508C502.869 101.508 502.762 101.189 502.762 100.552C502.762 99.9146 502.869 99.5958 503.082 99.5958C507.124 99.5958 510.05 99.3303 511.858 98.7991C513.773 98.2679 515.05 97.2587 515.688 95.7714C516.433 94.1778 516.805 91.7875 516.805 88.6005V14.8199C516.805 11.6328 516.433 9.29562 515.688 7.80832C515.05 6.32102 513.773 5.31178 511.858 4.78059C510.05 4.14319 507.124 3.82448 503.082 3.82448C502.869 3.82448 502.762 3.50577 502.762 2.86836C502.762 2.23095 502.869 1.91224 503.082 1.91224H567.231C568.188 1.91224 568.667 2.3903 568.667 3.34641L568.986 22.9469C568.986 23.2656 568.667 23.4781 568.029 23.5843C567.497 23.5843 567.231 23.4249 567.231 23.1062C566.912 17.4758 565.21 13.1201 562.124 10.0393C559.039 6.8522 554.943 5.25866 549.837 5.25866H540.103C536.379 5.25866 533.613 5.57737 531.806 6.21478C529.997 6.74596 528.72 7.70208 527.976 9.08314C527.337 10.4642 527.018 12.642 527.018 15.6166V87.9631C527.018 90.8314 527.337 93.0092 527.976 94.4965C528.72 95.8776 529.944 96.8337 531.646 97.3649C533.347 97.8961 536.007 98.1617 539.624 98.1617H552.39C557.497 98.1617 561.752 96.3557 565.156 92.7437C568.561 89.1316 570.848 84.1386 572.018 77.7644C572.018 77.552 572.231 77.4457 572.656 77.4457C572.976 77.4457 573.242 77.552 573.454 77.7644C573.774 77.8707 573.933 77.9769 573.933 78.0831C572.976 84.776 572.497 91.7875 572.497 99.1178C572.497 99.9677 572.284 100.605 571.859 101.03C571.539 101.349 570.901 101.508 569.944 101.508H503.082ZM561.007 64.3788C561.007 59.7044 559.837 56.358 557.497 54.3395C555.263 52.321 551.486 51.3118 546.167 51.3118H522.231V47.9654H546.645C551.752 47.9654 555.369 47.1155 557.497 45.4157C559.731 43.7159 560.848 40.8476 560.848 36.8106C560.848 36.5982 561.167 36.4919 561.805 36.4919C562.444 36.4919 562.763 36.5982 562.763 36.8106L562.603 49.7182C562.603 52.7991 562.656 55.1363 562.763 56.7298L562.922 64.3788C562.922 64.5912 562.603 64.6975 561.965 64.6975C561.326 64.6975 561.007 64.5912 561.007 64.3788ZM710.612 19.4411C710.612 9.03003 705.984 3.82448 696.728 3.82448C696.409 3.82448 696.25 3.50577 696.25 2.86836C696.25 2.23095 696.409 1.91224 696.728 1.91224L703.59 2.0716C707.42 2.28406 710.452 2.3903 712.686 2.3903C714.495 2.3903 717.101 2.28406 720.505 2.0716L727.208 1.91224C727.42 1.91224 727.527 2.23095 727.527 2.86836C727.527 3.50577 727.42 3.82448 727.208 3.82448C718.697 3.82448 714.441 9.03003 714.441 19.4411V64.6975C714.441 76.9146 711.037 86.4758 704.229 93.3811C697.42 100.18 688.271 103.58 676.781 103.58C668.909 103.58 661.994 102.039 656.036 98.9584C650.185 95.8776 645.61 91.5219 642.312 85.8915C639.121 80.1547 637.525 73.4619 637.525 65.8129V14.8199C637.525 11.6328 637.206 9.29562 636.567 7.80832C635.929 6.32102 634.653 5.31178 632.738 4.78059C630.929 4.14319 628.003 3.82448 623.961 3.82448C623.748 3.82448 623.642 3.50577 623.642 2.86836C623.642 2.23095 623.748 1.91224 623.961 1.91224L631.78 2.0716C636.248 2.28406 639.865 2.3903 642.631 2.3903C645.504 2.3903 649.281 2.28406 653.961 2.0716L661.302 1.91224C661.621 1.91224 661.781 2.23095 661.781 2.86836C661.781 3.50577 661.621 3.82448 661.302 3.82448C657.366 3.82448 654.44 4.14319 652.525 4.78059C650.717 5.41802 649.493 6.53349 648.855 8.12702C648.217 9.61432 647.898 11.9515 647.898 15.1386V60.2356C647.898 72.7714 650.717 82.3326 656.355 88.9192C661.994 95.5058 669.972 98.7991 680.292 98.7991C689.867 98.7991 697.313 95.8245 702.633 89.8753C707.952 83.8199 710.612 75.4804 710.612 64.8568V19.4411ZM749.905 5.57737L753.575 5.89608V84.1386C753.575 89.6628 754.533 93.6467 756.448 96.0901C758.469 98.4273 761.661 99.5958 766.022 99.5958C766.341 99.5958 766.501 99.9146 766.501 100.552C766.501 101.189 766.341 101.508 766.022 101.508C763.363 101.508 761.341 101.455 759.958 101.349L751.98 101.189L743.841 101.349C742.352 101.455 740.171 101.508 737.298 101.508C737.086 101.508 736.979 101.189 736.979 100.552C736.979 99.9146 737.086 99.5958 737.298 99.5958C741.873 99.5958 745.118 98.4273 747.033 96.0901C748.948 93.6467 749.905 89.6628 749.905 84.1386V5.57737ZM830.332 103.42C830.332 103.633 830.066 103.792 829.534 103.898C829.002 104.005 828.63 103.951 828.417 103.739L755.011 14.9792C751.607 10.836 748.469 7.96767 745.596 6.37414C742.83 4.67436 740.064 3.82448 737.298 3.82448C736.979 3.82448 736.82 3.50577 736.82 2.86836C736.82 2.23095 736.979 1.91224 737.298 1.91224L743.203 2.0716C744.479 2.17783 746.235 2.23095 748.469 2.23095C750.809 2.23095 752.724 2.17783 754.214 2.0716C755.703 1.96536 756.873 1.91224 757.724 1.91224C758.469 1.91224 759.054 2.12471 759.48 2.54965C760.012 2.86836 760.597 3.61201 761.235 4.78059C762.512 6.69284 763.841 8.49885 765.224 10.1986L829.056 88.4411L830.332 103.42ZM830.332 103.42L826.662 98.4804V19.4411C826.662 13.9169 825.705 9.93303 823.79 7.48961C821.981 5.04619 818.896 3.82448 814.534 3.82448C814.321 3.82448 814.215 3.50577 814.215 2.86836C814.215 2.23095 814.321 1.91224 814.534 1.91224L820.758 2.0716C823.949 2.28406 826.556 2.3903 828.577 2.3903C830.492 2.3903 833.151 2.28406 836.556 2.0716L843.098 1.91224C843.418 1.91224 843.577 2.23095 843.577 2.86836C843.577 3.50577 843.418 3.82448 843.098 3.82448C838.63 3.82448 835.386 5.04619 833.364 7.48961C831.343 9.93303 830.332 13.9169 830.332 19.4411V103.42ZM878.456 88.6005C878.456 91.8938 878.775 94.2841 879.413 95.7714C880.051 97.2587 881.275 98.2679 883.083 98.7991C884.998 99.3303 887.977 99.5958 892.02 99.5958C892.339 99.5958 892.498 99.9146 892.498 100.552C892.498 101.189 892.339 101.508 892.02 101.508C888.828 101.508 886.275 101.455 884.36 101.349L873.03 101.189L862.019 101.349C860.104 101.455 857.498 101.508 854.2 101.508C853.881 101.508 853.721 101.189 853.721 100.552C853.721 99.9146 853.881 99.5958 854.2 99.5958C858.242 99.5958 861.168 99.3303 862.977 98.7991C864.891 98.2679 866.168 97.2587 866.806 95.7714C867.551 94.1778 867.923 91.7875 867.923 88.6005V14.8199C867.923 11.6328 867.551 9.29562 866.806 7.80832C866.168 6.32102 864.891 5.31178 862.977 4.78059C861.168 4.14319 858.242 3.82448 854.2 3.82448C853.881 3.82448 853.721 3.50577 853.721 2.86836C853.721 2.23095 853.881 1.91224 854.2 1.91224L862.019 2.0716C866.487 2.28406 870.158 2.3903 873.03 2.3903C876.222 2.3903 880.051 2.28406 884.52 2.0716L892.02 1.91224C892.339 1.91224 892.498 2.23095 892.498 2.86836C892.498 3.50577 892.339 3.82448 892.02 3.82448C888.083 3.82448 885.158 4.14319 883.243 4.78059C881.328 5.41802 880.051 6.53349 879.413 8.12702C878.775 9.61432 878.456 11.9515 878.456 15.1386V88.6005ZM982.665 97.2055C995.325 105.811 1010.75 114.256 1028.94 122.543C1047.13 130.935 1066.28 135.132 1086.39 135.132C1089.9 135.132 1092.99 134.866 1095.65 134.335C1095.97 134.229 1096.18 134.441 1096.28 134.972C1096.5 135.503 1096.5 135.822 1096.28 135.928C1090.11 137.309 1083.62 138 1076.82 138C1059.05 138 1040.8 134.654 1022.08 127.961C1003.36 121.268 985.804 112.397 969.42 101.349L982.665 97.2055ZM958.09 103.42C948.196 103.42 939.367 101.136 931.6 96.5681C923.941 91.8938 917.983 85.6259 913.728 77.7644C909.579 69.7968 907.504 61.1386 907.504 51.7898C907.504 40.8476 910.27 31.4988 915.802 23.7437C921.334 15.8822 928.409 9.98615 937.026 6.05543C945.75 2.12471 954.633 0.159352 963.676 0.159352C973.782 0.159352 982.665 2.54965 990.325 7.33026C997.985 12.0046 1003.84 18.2194 1007.88 25.9746C1012.03 33.7298 1014.1 41.9631 1014.1 50.6744C1014.1 60.3418 1011.55 69.2125 1006.44 77.2864C1001.34 85.3603 994.474 91.7344 985.857 96.4088C977.346 101.083 968.091 103.42 958.09 103.42ZM963.676 100.074C970.91 100.074 977.399 98.321 983.144 94.8152C988.995 91.3095 993.57 86.2102 996.868 79.5173C1000.27 72.7182 1001.97 64.5912 1001.97 55.1363C1001.97 45.1501 1000.11 36.2794 996.389 28.5243C992.666 20.7691 987.399 14.7136 980.591 10.358C973.888 6.00231 966.016 3.82448 956.973 3.82448C945.271 3.82448 936.122 7.59585 929.526 15.1386C922.93 22.6813 919.632 33.0393 919.632 46.2125C919.632 56.1986 921.494 65.3349 925.217 73.6212C928.941 81.8014 934.154 88.2818 940.856 93.0624C947.558 97.7367 955.165 100.074 963.676 100.074ZM1113.14 19.4411C1113.14 9.03003 1108.51 3.82448 1099.26 3.82448C1098.94 3.82448 1098.78 3.50577 1098.78 2.86836C1098.78 2.23095 1098.94 1.91224 1099.26 1.91224L1106.12 2.0716C1109.95 2.28406 1112.98 2.3903 1115.22 2.3903C1117.02 2.3903 1119.63 2.28406 1123.04 2.0716L1129.74 1.91224C1129.95 1.91224 1130.06 2.23095 1130.06 2.86836C1130.06 3.50577 1129.95 3.82448 1129.74 3.82448C1121.23 3.82448 1116.97 9.03003 1116.97 19.4411V64.6975C1116.97 76.9146 1113.57 86.4758 1106.76 93.3811C1099.95 100.18 1090.8 103.58 1079.31 103.58C1071.44 103.58 1064.52 102.039 1058.57 98.9584C1052.71 95.8776 1048.14 91.5219 1044.84 85.8915C1041.65 80.1547 1040.05 73.4619 1040.05 65.8129V14.8199C1040.05 11.6328 1039.74 9.29562 1039.1 7.80832C1038.46 6.32102 1037.18 5.31178 1035.27 4.78059C1033.46 4.14319 1030.53 3.82448 1026.49 3.82448C1026.28 3.82448 1026.17 3.50577 1026.17 2.86836C1026.17 2.23095 1026.28 1.91224 1026.49 1.91224L1034.31 2.0716C1038.78 2.28406 1042.4 2.3903 1045.16 2.3903C1048.03 2.3903 1051.81 2.28406 1056.49 2.0716L1063.83 1.91224C1064.15 1.91224 1064.31 2.23095 1064.31 2.86836C1064.31 3.50577 1064.15 3.82448 1063.83 3.82448C1059.9 3.82448 1056.97 4.14319 1055.06 4.78059C1053.25 5.41802 1052.02 6.53349 1051.38 8.12702C1050.75 9.61432 1050.43 11.9515 1050.43 15.1386V60.2356C1050.43 72.7714 1053.25 82.3326 1058.89 88.9192C1064.52 95.5058 1072.5 98.7991 1082.82 98.7991C1092.4 98.7991 1099.84 95.8245 1105.16 89.8753C1110.48 83.8199 1113.14 75.4804 1113.14 64.8568V19.4411ZM1140.15 101.508C1139.93 101.508 1139.83 101.189 1139.83 100.552C1139.83 99.9146 1139.93 99.5958 1140.15 99.5958C1144.19 99.5958 1147.12 99.3303 1148.92 98.7991C1150.84 98.2679 1152.12 97.2587 1152.75 95.7714C1153.5 94.1778 1153.87 91.7875 1153.87 88.6005V14.8199C1153.87 11.6328 1153.5 9.29562 1152.75 7.80832C1152.12 6.32102 1150.84 5.31178 1148.92 4.78059C1147.12 4.14319 1144.19 3.82448 1140.15 3.82448C1139.93 3.82448 1139.83 3.50577 1139.83 2.86836C1139.83 2.23095 1139.93 1.91224 1140.15 1.91224H1204.3C1205.26 1.91224 1205.73 2.3903 1205.73 3.34641L1206.05 22.9469C1206.05 23.2656 1205.73 23.4781 1205.1 23.5843C1204.56 23.5843 1204.3 23.4249 1204.3 23.1062C1203.98 17.4758 1202.28 13.1201 1199.19 10.0393C1196.11 6.8522 1192.01 5.25866 1186.9 5.25866H1177.17C1173.45 5.25866 1170.68 5.57737 1168.87 6.21478C1167.06 6.74596 1165.79 7.70208 1165.04 9.08314C1164.4 10.4642 1164.08 12.642 1164.08 15.6166V87.9631C1164.08 90.8314 1164.4 93.0092 1165.04 94.4965C1165.79 95.8776 1167.01 96.8337 1168.71 97.3649C1170.41 97.8961 1173.07 98.1617 1176.69 98.1617H1189.46C1194.56 98.1617 1198.82 96.3557 1202.22 92.7437C1205.63 89.1316 1207.91 84.1386 1209.09 77.7644C1209.09 77.552 1209.3 77.4457 1209.72 77.4457C1210.04 77.4457 1210.31 77.552 1210.52 77.7644C1210.84 77.8707 1211 77.9769 1211 78.0831C1210.04 84.776 1209.56 91.7875 1209.56 99.1178C1209.56 99.9677 1209.35 100.605 1208.93 101.03C1208.61 101.349 1207.97 101.508 1207.01 101.508H1140.15ZM1198.07 64.3788C1198.07 59.7044 1196.9 56.358 1194.56 54.3395C1192.33 52.321 1188.55 51.3118 1183.23 51.3118H1159.3V47.9654H1183.71C1188.82 47.9654 1192.44 47.1155 1194.56 45.4157C1196.8 43.7159 1197.91 40.8476 1197.91 36.8106C1197.91 36.5982 1198.23 36.4919 1198.87 36.4919C1199.51 36.4919 1199.83 36.5982 1199.83 36.8106L1199.67 49.7182C1199.67 52.7991 1199.72 55.1363 1199.83 56.7298L1199.99 64.3788C1199.99 64.5912 1199.67 64.6975 1199.03 64.6975C1198.39 64.6975 1198.07 64.5912 1198.07 64.3788Z" fill="white"/>
</svg>
