<svg width="47" height="58" viewBox="0 0 47 58" fill="none" xmlns="http://www.w3.org/2000/svg">
<path d="M14.9362 50.0901C14.9362 51.8813 15.1226 53.1784 15.4954 53.9813C15.8681 54.7842 16.5516 55.3401 17.5457 55.6489C18.5397 55.896 20.1551 56.0195 22.3918 56.0195H32.5501C36.0915 56.0195 38.9184 54.9386 41.0307 52.7769C43.1431 50.6151 44.541 47.6195 45.2244 43.79C45.2244 43.6047 45.3798 43.5429 45.6904 43.6047C46.0632 43.6047 46.2496 43.6973 46.2496 43.8826C45.6904 49.0092 45.4108 53.2401 45.4108 56.5754C45.4108 57.0695 45.3176 57.4401 45.1312 57.6872C44.9449 57.8725 44.5721 57.9651 44.0129 57.9651H0.956899C0.832638 57.9651 0.770508 57.7798 0.770508 57.4092C0.770508 57.0387 0.832638 56.8534 0.956899 56.8534C3.31785 56.8534 5.02642 56.6989 6.08264 56.3901C7.20098 56.0813 7.94654 55.4945 8.31932 54.6298C8.69211 53.7034 8.8785 52.3136 8.8785 50.4607V7.56496C8.8785 5.71202 8.69211 4.3532 8.31932 3.48849C7.94654 2.62379 7.20098 2.03702 6.08264 1.7282C5.02642 1.35761 3.31785 1.17232 0.956899 1.17232C0.832638 1.17232 0.770508 0.987022 0.770508 0.616434C0.770508 0.245846 0.832638 0.0605469 0.956899 0.0605469L5.52347 0.153199C8.13293 0.276728 10.2454 0.338493 11.8607 0.338493C13.6004 0.338493 15.7749 0.276728 18.3844 0.153199L22.8578 0.0605469C23.0442 0.0605469 23.1374 0.245846 23.1374 0.616434C23.1374 0.987022 23.0442 1.17232 22.8578 1.17232C20.559 1.17232 18.8504 1.35761 17.732 1.7282C16.6758 2.03702 15.9303 2.65467 15.4954 3.58114C15.1226 4.44585 14.9362 5.80467 14.9362 7.65761V50.0901Z" fill="white"/>
<path d="M41.8657 15.5111C41.8657 12.4846 40.5141 10.9714 37.8114 10.9714C37.7182 10.9714 37.6716 10.8788 37.6716 10.6935C37.6716 10.5082 37.7182 10.4155 37.8114 10.4155L39.8151 10.4619C40.9337 10.5236 41.8191 10.5545 42.4715 10.5545C42.9996 10.5545 43.7607 10.5236 44.7547 10.4619L46.7119 10.4155C46.774 10.4155 46.805 10.5082 46.805 10.6935C46.805 10.8788 46.774 10.9714 46.7119 10.9714C44.2266 10.9714 42.984 12.4846 42.984 15.5111V28.667C42.984 32.2185 41.99 34.9979 40.0015 37.0052C38.0134 38.9817 35.3418 39.9699 31.9867 39.9699C29.6879 39.9699 27.6687 39.5221 25.929 38.6266C24.2205 37.731 22.8847 36.4648 21.9216 34.828C20.9897 33.1604 20.5237 31.2148 20.5237 28.9913V14.1677C20.5237 13.2413 20.4305 12.5619 20.2441 12.1295C20.0577 11.6971 19.685 11.4038 19.1258 11.2494C18.5977 11.0641 17.7434 10.9714 16.5629 10.9714C16.5008 10.9714 16.4697 10.8788 16.4697 10.6935C16.4697 10.5082 16.5008 10.4155 16.5629 10.4155L18.8462 10.4619C20.1509 10.5236 21.2072 10.5545 22.0148 10.5545C22.8847 10.5545 23.9719 10.5236 25.2767 10.4619L27.5134 10.4155C27.6066 10.4155 27.6532 10.5082 27.6532 10.6935C27.6532 10.8788 27.6066 10.9714 27.5134 10.9714C26.364 10.9714 25.5097 11.0641 24.9505 11.2494C24.3913 11.4346 24.0185 11.7589 23.8322 12.2221C23.6458 12.6545 23.5526 13.3339 23.5526 14.2604V27.3699C23.5526 30.9832 24.3758 33.7626 26.0222 35.7082C27.6998 37.6229 30.0296 38.5802 33.0119 38.5802C35.8077 38.5802 37.9823 37.7155 39.5356 35.9861C41.0891 34.2258 41.8657 31.8016 41.8657 28.7133V15.5111Z" fill="white"/>
</svg>
